<svg width="17" height="17" xmlns="http://www.w3.org/2000/svg" fill="none">
 <g>
  <title>Layer 1</title>
  <path d="m16.95675,5.04653l0,-3c0,-0.26522 -0.1054,-0.51957 -0.2929,-0.70711c-0.1875,-0.18753 -0.4419,-0.29289 -0.7071,-0.29289l-15,0c-0.26522,0 -0.51957,0.10536 -0.70711,0.29289c-0.18753,0.18754 -0.29289,0.44189 -0.29289,0.70711l0,3c0,0.26522 0.10536,0.51957 0.29289,0.70711c0.18754,0.18753 0.44189,0.29289 0.70711,0.29289c-0.26522,0 -0.51957,0.10536 -0.70711,0.29289c-0.18753,0.18754 -0.29289,0.44191 -0.29289,0.70711l0,3c0,0.2652 0.10536,0.5196 0.29289,0.7071c0.18754,0.1875 0.44189,0.2929 0.70711,0.2929c-0.26522,0 -0.51957,0.1054 -0.70711,0.2929c-0.18753,0.1875 -0.29289,0.4419 -0.29289,0.7071l0,3c0,0.2652 0.10536,0.5196 0.29289,0.7071c0.18754,0.1875 0.44189,0.2929 0.70711,0.2929l15,0c0.2652,0 0.5196,-0.1054 0.7071,-0.2929c0.1875,-0.1875 0.2929,-0.4419 0.2929,-0.7071l0,-3c0,-0.2652 -0.1054,-0.5196 -0.2929,-0.7071c-0.1875,-0.1875 -0.4419,-0.2929 -0.7071,-0.2929c0.2652,0 0.5196,-0.1054 0.7071,-0.2929c0.1875,-0.1875 0.2929,-0.4419 0.2929,-0.7071l0,-3c0,-0.2652 -0.1054,-0.51957 -0.2929,-0.70711c-0.1875,-0.18753 -0.4419,-0.29289 -0.7071,-0.29289c0.2652,0 0.5196,-0.10536 0.7071,-0.29289c0.1875,-0.18754 0.2929,-0.44189 0.2929,-0.70711zm-1,10l-15,0l0,-3l15,0l0,3zm0,-5l-15,0l0,-3l15,0l0,3zm0,-5l-15,0l0,-3l15,0l0,3z" fill="#FF4A57" id="svg_1"/>
  <path d="m2.70675,4.29653c0.41421,0 0.75,-0.33579 0.75,-0.75c0,-0.41421 -0.33579,-0.75 -0.75,-0.75c-0.41421,0 -0.75,0.33579 -0.75,0.75c0,0.41421 0.33579,0.75 0.75,0.75z" fill="#FF4A57" id="svg_2"/>
  <path d="m5.20675,4.29653c0.41421,0 0.75,-0.33579 0.75,-0.75c0,-0.41421 -0.33579,-0.75 -0.75,-0.75c-0.41421,0 -0.75,0.33579 -0.75,0.75c0,0.41421 0.33579,0.75 0.75,0.75z" fill="#FF4A57" id="svg_3"/>
  <path d="m2.70675,9.29653c0.41421,0 0.75,-0.3358 0.75,-0.75c0,-0.4142 -0.33579,-0.75 -0.75,-0.75c-0.41421,0 -0.75,0.3358 -0.75,0.75c0,0.4142 0.33579,0.75 0.75,0.75z" fill="#FF4A57" id="svg_4"/>
  <path d="m5.20675,9.29653c0.41421,0 0.75,-0.3358 0.75,-0.75c0,-0.4142 -0.33579,-0.75 -0.75,-0.75c-0.41421,0 -0.75,0.3358 -0.75,0.75c0,0.4142 0.33579,0.75 0.75,0.75z" fill="#FF4A57" id="svg_5"/>
  <path d="m2.70675,14.29653c0.41421,0 0.75,-0.3358 0.75,-0.75c0,-0.4142 -0.33579,-0.75 -0.75,-0.75c-0.41421,0 -0.75,0.3358 -0.75,0.75c0,0.4142 0.33579,0.75 0.75,0.75z" fill="#FF4A57" id="svg_6"/>
  <path d="m5.20675,14.29653c0.41421,0 0.75,-0.3358 0.75,-0.75c0,-0.4142 -0.33579,-0.75 -0.75,-0.75c-0.41421,0 -0.75,0.3358 -0.75,0.75c0,0.4142 0.33579,0.75 0.75,0.75z" fill="#FF4A57" id="svg_7"/>
 </g>

</svg>