<svg width="36" height="36" xmlns="http://www.w3.org/2000/svg" fill="#FF4A57" version="1.1" preserveAspectRatio="xMidYMid meet">
 <title>terminal-solid</title>

 <g>
  <title>Layer 1</title>
  <path d="m33.69397,3.4073l-31.38794,0a2.242,2.242 0 0 0 -2.242,2.242l0,24.66195a2.242,2.242 0 0 0 2.242,2.242l31.38794,0a2.242,2.242 0 0 0 2.242,-2.242l0,-24.66195a2.242,2.242 0 0 0 -2.242,-2.242zm-28.24914,12.11799l0,-2.95943l11.20998,5.14538l0,2.33168l-11.20998,5.14538l0,-2.97064l7.2977,-3.36299l-7.2977,-3.32936l0,-0.00002zm18.60856,10.75037l-7.17439,0l0,-2.69039l7.17439,0l0,2.69039zm-21.74736,-18.16016l0,-2.4662l31.38794,0l0,2.4662l-31.38794,0z" class="clr-i-solid clr-i-solid-path-1" id="svg_1" stroke="null"/>
 </g>
</svg>