<svg width="18" height="18" xmlns="http://www.w3.org/2000/svg" class="cf-icon-svg" fill="#fff">

 <g>
  <title>Layer 1</title>
  <path stroke="null" id="svg_1" d="m17.95196,8.98207a8.96873,8.96873 0 1 1 -8.96873,-8.96873a8.96873,8.96873 0 0 1 8.96873,8.96873zm-13.35284,-1.58258l2.77547,-2.77434l-1.09433,-1.09433a0.89948,0.89948 0 0 0 -1.26879,0l-1.50555,1.50668a0.89948,0.89948 0 0 0 0,1.26879l1.0932,1.0932zm9.32331,6.75289c0.14727,0 0.23337,-0.11328 0.19598,-0.27981l-0.64912,-2.87969a1.46024,1.46024 0 0 0 -0.33079,-0.60267l-5.13179,-5.13179l-0.71822,0.72049l5.13065,5.13065l0.28548,-0.28548a0.89835,0.89835 0 0 1 0.16653,0.3036l0.28661,1.27332l-0.78166,0.78166l-1.27445,-0.28548a0.90514,0.90514 0 0 1 -0.3036,-0.16766l0.98671,-0.98558l-5.13179,-5.13179l-1.41945,1.42172l5.13179,5.12952a1.4659,1.4659 0 0 0 0.60381,0.33192l2.87969,0.64912a0.33985,0.33985 0 0 0 0.07477,0.00906l-0.00113,-0.00113z"/>
 </g>
</svg>